# xmcd
#
# Track frame offsets:
#	150
#	14733
#	27076
#	43178
#	56720
#	70202
#	88989
#	108068
#	123311
#	136636
#	153812
#	169688
#	182039
#	192994
#
# Disc length: 2735 seconds
#
# Revision: 0
# Processed by: cddbd v1.5.2PL0 Copyright (c) Steve Scherf et al.
# Submitted via: EasyCDDAExtractor 12.0.1.1
#
DISCID=b80aad0e
DTITLE=Various Artist - Walk With Me CD2
DYEAR=2008
DGENRE=Country
TTITLE0=Yaya Herman Dune - Walk With Me
TTITLE1=Poor Rich Ones - Heroes Making Dinner
TTITLE2=Einar Stenseng and Paal Flaata - Oh I Have Left the Ground
TTITLE3=Hello Goodbye - Into the Forest
TTITLE4=Bjørkhaug 49ers and Leiv Reed - Surfer's Morning
TTITLE5=Brødrene Lowenstierne and Tom Mathisen - New Apartment
TTITLE6=Bjølsen Valsemølle - Cornerman
TTITLE7=Seven Doors Hotel and Peter Pogo - Like The Byrds
TTITLE8=Ring - People in the Forest
TTITLE9=The Abstainers - Everything Was Up for a Romance
TTITLE10=A Boy Named Sue - Last Word
TTITLE11=Prewar Yardsale - Ten Stops More
TTITLE12=A Humming From the Wood - With the Feather
TTITLE13=Peter Ebbtide - Born Again
EXTD=
EXTT0=
EXTT1=
EXTT2=
EXTT3=
EXTT4=
EXTT5=
EXTT6=
EXTT7=
EXTT8=
EXTT9=
EXTT10=
EXTT11=
EXTT12=
EXTT13=
PLAYORDER=
